HIERARCHY
ROOT Hips
{
	OFFSET 0.00000 0.00000 0.00000
	CHANNELS 6 Xposition Yposition Zposition Zrotation Yrotation Xrotation 
	JOINT LHipJoint
	{
		OFFSET 0 0 0
		CHANNELS 3 Zrotation Yrotation Xrotation
		JOINT LeftHip
		{
			OFFSET 1.75344 -1.53157 0.77399
			CHANNELS 3 Zrotation Yrotation Xrotation
			JOINT LeftKnee
			{
				OFFSET 2.25415 -6.19323 0.00000
				CHANNELS 3 Zrotation Yrotation Xrotation
				JOINT LeftAnkle
				{
					OFFSET 2.30342 -6.32861 0.00000
					CHANNELS 3 Zrotation Yrotation Xrotation
					JOINT LeftToe
					{
						OFFSET 0.10958 -0.30108 1.49206
						CHANNELS 3 Zrotation Yrotation Xrotation
						End Site
						{
							OFFSET 0.00000 -0.00000 0.77783
						}
					}
				}
			}
		}
	}
	JOINT RHipJoint
	{
		OFFSET 0 0 0
		CHANNELS 3 Zrotation Yrotation Xrotation
		JOINT RightHip
		{
			OFFSET -1.81912 -1.53156 0.77399
			CHANNELS 3 Zrotation Yrotation Xrotation
			JOINT RightKnee
			{
				OFFSET -2.22882 -6.12365 0.00000
				CHANNELS 3 Zrotation Yrotation Xrotation
				JOINT RightAnkle
				{
					OFFSET -2.21943 -6.09785 0.00000
					CHANNELS 3 Zrotation Yrotation Xrotation
					JOINT RightToe
					{
						OFFSET -0.18931 -0.52012 1.59379
						CHANNELS 3 Zrotation Yrotation Xrotation
						End Site
						{
							OFFSET -0.00000 -0.00000 0.84686
						}
					}
				}
			}
		}
	}
	JOINT lowerback
	{
		OFFSET 0 0 0
		CHANNELS 3 Zrotation Yrotation Xrotation
		JOINT Chest
		{
			OFFSET -0.00200 1.66634 -0.14248
			CHANNELS 3 Zrotation Yrotation Xrotation
			JOINT Chest2
			{
				OFFSET -0.00875 1.64542 0.09514
				CHANNELS 3 Zrotation Yrotation Xrotation
				JOINT lowerneck
				{
					OFFSET 0 0 0
					CHANNELS 3 Zrotation Yrotation Xrotation
					JOINT Neck
					{
						OFFSET 0.02257 1.59605 0.00839
						CHANNELS 3 Zrotation Yrotation Xrotation
						JOINT Head
						{
							OFFSET -0.10214 1.57530 -0.23335
							CHANNELS 3 Zrotation Yrotation Xrotation
							End Site
							{
								OFFSET -0.03588 1.60717 -0.08062
							}
						}
					}
				}
				JOINT LeftCollar
				{
					OFFSET 0 0 0
					CHANNELS 3 Zrotation Yrotation Xrotation
					JOINT LeftShoulder
					{
						OFFSET 2.54983 1.10186 0.40078
CHANNELS 3 Zrotation Xrotation Yrotation
						JOINT LeftElbow
						{
OFFSET 0 -4.288400 0.000000
CHANNELS 3 Zrotation Xrotation Yrotation
							JOINT LeftWrist
							{
OFFSET 0 -3.065520 -0.000000
CHANNELS 3 Zrotation Xrotation Yrotation
								JOINT lhand
								{
									OFFSET 0 0 0
CHANNELS 3 Zrotation Xrotation Yrotation
									JOINT LFingers
									{
OFFSET 0 -0.753040 0.000000
CHANNELS 3 Zrotation Xrotation Yrotation
										End Site
										{
OFFSET 0 -0.607120 0.000000
										}
									}
								}
								JOINT LThumb
								{
OFFSET 0 0.000000 0.000000
CHANNELS 3 Zrotation Xrotation Yrotation
									End Site
									{
OFFSET 0 -0.616390 0.616390
									}
								}
							}
						}
					}
				}
				JOINT RightCollar
				{
					OFFSET 0 0 0
					CHANNELS 3 Zrotation Yrotation Xrotation
					JOINT RightShoulder
					{
						OFFSET -2.60909 1.35448 0.21802
CHANNELS 3 Zrotation Xrotation Yrotation
						JOINT RightElbow
						{
OFFSET 0 -4.521720 -0.000000
CHANNELS 3 Zrotation Xrotation Yrotation
							JOINT RightWrist
							{
OFFSET 0 -2.891400 0.000000
CHANNELS 3 Zrotation Xrotation Yrotation
								JOINT rhand
								{
									OFFSET 0 0 0
CHANNELS 3 Zrotation Xrotation Yrotation
									JOINT RFingers
									{
OFFSET 0 -0.680540 0.000000
CHANNELS 3 Zrotation Xrotation Yrotation
										End Site
										{
OFFSET 0 -0.548670 0.000000
										}
									}
								}
								JOINT RThumb
								{
OFFSET 0 0.000000 0.000000
CHANNELS 3 Zrotation Xrotation Yrotation
									End Site
									{
OFFSET 0 -0.557050 0.557050
									}
								}
							}
						}
					}
				}
			}
		}
	}
}
MOTION
Frames: 5
Frame Time: 0.008333333333333333
7.983100 14.973300 42.365700 177.175000 12.539800 179.537000 0.000000 0.000000 0.000000 -28.457000 -14.087300 -4.428200 2.587500 9.995200 28.961200 2.291200 9.595600 -33.301000 1.247400 -7.081400 -19.956600 0.000000 0.000000 0.000000 18.185800 14.867200 -11.821100 -4.183000 -12.400100 37.162400 -1.794100 -4.294700 -27.144000 -0.295600 3.495900 -9.662500 -5.446500 -1.248600 6.785800 -4.707700 -1.968900 0.037800 -1.644000 -0.787300 -3.747400 3.607100 5.461600 -2.846700 -3.792300 8.258200 13.661400 -1.305500 4.247900 4.872000 -0.000000 -0.000000 0.000000 8.257000 12.842000 -7.868200 20.800100 -31.594200 5.944900 15.143100 12.825500 32.071000 0.000000 0.000000 0.000000 -7.125000 0.000000 0.000000 -9.369300 -2.619500 -9.918900 -0.000000 -0.000000 0.000000 -8.621800 16.854500 51.221700 -26.809900 -37.997300 -9.381900 -50.300300 48.734300 56.754900 0.000000 0.000000 0.000000 7.125000 0.000000 -0.000000 -178.887400 7.263600 0.963200
7.947825 14.963096 42.350003 177.381386 13.548226 179.301528 0.000000 0.000000 0.000000 -28.287737 -12.919126 -4.775171 2.657097 10.118082 29.359965 2.226241 10.021508 -33.201956 1.789402 -8.412855 -23.975315 0.000000 0.000000 0.000000 18.283042 14.717395 -12.312553 -4.406908 -12.683034 38.193241 -1.768594 -3.345691 -26.507748 -0.171506 2.666380 -7.351395 -5.164475 -1.429140 6.656637 -4.607486 -2.192244 0.048903 -1.676784 -0.912686 -3.668155 4.216466 5.642124 -2.639876 -5.107039 8.773469 14.271262 -1.768598 4.484508 5.128373 0.000000 0.000000 0.000000 8.277514 12.300727 -6.257938 19.969992 -30.595664 5.521105 19.654176 12.363223 33.373519 0.000000 0.000000 0.000000 -7.125000 0.000000 0.000000 -7.053384 -4.837052 -7.612408 0.000000 0.000000 0.000000 -8.827058 16.418152 45.884603 -26.174418 -37.380228 -8.993427 -15.318169 32.447065 59.949160 0.000000 0.000000 0.000000 7.125000 0.000000 0.000000 -91.384084 -0.312540 -77.881539
7.911377 14.938063 42.332060 176.999997 14.504153 178.747387 0.000000 0.000000 0.000000 -28.834791 -11.680942 -4.593241 2.640044 10.088201 29.262681 2.291774 9.736953 -33.393612 1.674517 -8.152304 -23.177673 0.000000 0.000000 0.000000 17.798613 14.842510 -12.710177 -4.702569 -13.040733 39.521329 -1.765790 -2.244863 -26.000029 -0.097893 2.018016 -5.555533 -5.109934 -1.577419 6.716717 -4.888700 -2.370888 0.150170 -1.983234 -0.996224 -3.609171 4.905824 5.836973 -2.240268 -6.118215 9.191611 14.269449 -2.175121 4.686139 5.157173 0.000000 0.000000 0.000000 8.399927 12.174326 -5.776218 20.565811 -31.318031 5.822558 9.983688 15.846798 30.136019 0.000000 0.000000 0.000000 -7.125000 0.000000 0.000000 -12.144866 0.058035 -12.414814 0.000000 0.000000 0.000000 -8.526101 16.182132 45.299697 -25.512418 -36.723119 -8.594430 -16.486535 31.943708 54.023249 0.000000 0.000000 0.000000 7.125000 0.000000 0.000000 -11.573886 -6.562473 -169.604964
7.885004 14.919087 42.306261 176.416324 15.428574 178.003666 0.000000 0.000000 0.000000 -29.588052 -10.485450 -4.119741 2.600074 10.017576 29.033774 2.321416 9.630544 -33.494934 1.648188 -8.090523 -22.989806 0.000000 0.000000 0.000000 17.220084 14.424625 -13.129525 -5.007000 -13.391613 40.852710 -1.767182 -1.466672 -25.694996 -0.024974 1.005354 -2.763659 -5.558198 -1.872237 6.738872 -4.920585 -2.781301 0.278083 -1.729530 -1.191107 -3.467218 5.160916 6.316151 -1.900837 -6.869273 9.976137 14.156517 -2.408267 5.056854 5.160482 0.000000 0.000000 0.000000 7.766561 12.614014 -4.257744 20.943314 -31.762063 6.020083 15.847432 12.028825 30.493106 0.000000 0.000000 0.000000 -7.125000 0.000000 0.000000 -8.849344 -1.231375 -9.084078 0.000000 0.000000 0.000000 -9.041025 15.923110 45.629179 -25.776417 -36.987066 -8.752771 -18.361273 33.064986 52.780505 0.000000 0.000000 0.000000 7.125000 0.000000 0.000000 -10.654959 -7.225865 -170.601117
7.856937 14.906630 42.288345 175.954109 16.495503 177.439730 0.000000 0.000000 0.000000 -30.149552 -9.164818 -3.899006 2.547556 9.923899 28.730523 2.332861 9.491594 -33.472905 1.543831 -7.843104 -22.238474 0.000000 0.000000 0.000000 16.746602 13.828913 -13.857509 -5.290664 -13.703805 42.063777 -1.778847 -0.813114 -25.531793 -0.013348 0.744976 -2.047336 -5.649490 -2.149376 6.668885 -5.052129 -3.133728 0.414450 -1.787739 -1.365031 -3.285010 5.641993 6.699891 -1.510548 -7.526438 10.503518 13.527528 -2.675570 5.307215 4.993407 0.000000 0.000000 0.000000 7.444146 12.555569 -2.833834 20.571325 -31.324493 5.825410 17.754751 11.010989 32.715206 0.000000 0.000000 0.000000 -7.125000 0.000000 0.000000 -7.976580 -3.726862 -8.559467 0.000000 0.000000 0.000000 -9.263087 15.632360 45.697780 -26.115831 -37.322849 -8.957831 -20.281679 34.504295 51.841938 0.000000 0.000000 0.000000 7.125000 0.000000 0.000000 -9.729047 -7.580228 -171.512856
